<svg id="Layer_1" xmlns="http://www.w3.org/2000/svg" viewBox="0 0 595.3 420.9">
  <style>
    .st0{fill:#FFFFFF;}
  </style>
  <path class="st0" d="M304.5 173.3h-20v48.2l-36.7-48.2H232v78.3h17v-49.8l37.9 49.8h56.7v-15.7h-39.1zM474.1 212.2c0-22-17-38.9-41.6-38.9H402v78.3h30.5c24.6 0 41.6-17.1 41.6-39.1v-.3zm-18 .5c0 13.9-9.5 23.4-23.6 23.4h-13.3v-47.2h13.3c14.1 0 23.6 9.7 23.6 23.6v.2zM472.9 233.2h18.6v18.3h-18.6zM184.2 219.8h36.9v-15.3h-36.9v-15.9h42v-15.3h-59.1v78.3h59.6v-15.3h-42.5zM126.6 221.4H144v11.2c-4.4 3.1-10 4.7-16.2 4.7-13.9 0-23.7-10.5-23.7-24.8v-.2c0-13.3 10-24.4 22.5-24.4 9.1 0 14.4 2.9 20.5 7.9l10.8-13.1c-8.2-6.9-16.7-10.7-30.8-10.7-23.7 0-41 18.2-41 40.5v.2c0 23.1 16.8 40.3 41.2 40.3 14.3 0 25.4-5.6 33.4-12.4v-34h-34v14.8zM362.7 204.7L344 173.3h-20.1l30.1 47.4v30.9h17.2v-31.2l30.1-47.1h-19.6z"/>
</svg>
