<svg width="499" height="89" viewBox="0 0 499 89" xmlns="http://www.w3.org/2000/svg">
  <path d="M128 60.66V30h10.163c2.412 0 4.53.403 6.352 1.21 1.823.805 3.338 1.9 4.543 3.28 1.206 1.383 2.11 3.002 2.713 4.86.604 1.856.906 3.835.906 5.937 0 2.33-.338 4.44-1.012 6.326-.675 1.885-1.644 3.498-2.907 4.836-1.263 1.338-2.792 2.374-4.586 3.108-1.794.735-3.796 1.102-6.007 1.102H128zm22.48-15.373c0-1.93-.273-3.707-.82-5.333-.544-1.627-1.34-3.03-2.39-4.21-1.047-1.18-2.33-2.102-3.853-2.764-1.522-.663-3.273-.994-5.254-.994h-7.967v26.687h7.967c2.01 0 3.783-.338 5.32-1.015 1.535-.676 2.82-1.62 3.853-2.828 1.033-1.21 1.816-2.627 2.347-4.254.53-1.626.797-3.39.797-5.29zM208 58.673v1.987h-20.37V30h19.98v1.986h-17.784v12.048h15.546v1.9h-15.546v12.74H208zM241.703 30l11.67 27.896L265.002 30h2.325l-12.962 30.66h-1.98L239.42 30h2.284zm80.472 1.986H310.98V60.66h-2.197V31.986h-11.196V30h24.59v1.986zm54.032 26.687v1.987h-20.37V30h19.982v1.986h-17.785v12.048h15.546v1.9h-15.545v12.74h18.173zm31.55 1.987L420.766 30h1.808l13.006 30.66h-2.37l-4.263-10.105h-14.6l-4.262 10.105h-2.326zm13.91-27.983l-6.803 16.064h13.48l-6.676-16.063zm75.09 27.983V34.146L484.702 54.83h-1.377l-12.058-20.684V60.66h-2.197V30h2.197l12.747 21.937L496.76 30h2.195v30.66h-2.196z" fill="#002F2F"/>
  <path fill-opacity=".9" fill="#FF6620" d="M64.042 88.083L40 64.04 64.042 40l24.04 24.04z"/>
  <path fill-opacity=".5" fill="#006084" d="M24.042 48.083L0 24.04 24.042 0l24.04 24.04z"/>
  <path fill-opacity=".9" fill="#00A485" d="M64.042 48.083L40 24.04 64.042 0l24.04 24.04z"/>
  <path fill-opacity=".7" fill="#002F2F" d="M24.042 88.083L0 64.04 24.042 40l24.04 24.04z"/>
</svg>
